# xmcd
# 
# Track frame offsets:
#     150
#     23577
#     62231
#     91939
#     120975
#     158222
#     183713
#     221755
# 
# Disc length: 3289
# 
# Revision: 6
# Processed by: cddbd v1.5.2PL0 Copyright (c) Steve Scherf et al.
# Submitted via: fre:ac v1.0.31
# 
DISCID=670cd708
DTITLE=Metallica - Master Of Puppets
DYEAR=1986
DGENRE=Hard Rock
TTITLE0=Battery
TTITLE1=Master Of Puppets
TTITLE2=The Thing That Should Not Be
TTITLE3=Welcome Home (Sanitarium)
TTITLE4=Disposable Heroes
TTITLE5=Leper Messiah
TTITLE6=Orion
TTITLE7=Damage, Inc.
EXTD=Remastered
EXTT0=
EXTT1=
EXTT2=
EXTT3=
EXTT4=
EXTT5=
EXTT6=
EXTT7=
PLAYORDER=
